<svg width="400" height="60" viewBox="0 0 400 60" fill="none" xmlns="http://www.w3.org/2000/svg">
<g clip-path="url(#clip0_1071_2)">
<path d="M55.9256 59.0053H48.2678L36.3078 25.6807L24.4238 59.0053H16.7659L0 7.96875H11.2279L21.1439 39.7604L32.1509 7.96875H40.5338L51.5407 39.7604L61.4567 7.96875H72.6847L55.9118 59.0124L55.9256 59.0053Z" fill="#4C5672"/>
<path d="M115.281 49.2331V59.0035H83.0557V7.96875H114.625V17.7393H93.6963V28.5318H109.516V38.1573H93.6963V49.24H115.281V49.2331Z" fill="#4C5672"/>
<path d="M164.261 49.2331V59.0035H133.561V7.96875H144.209V49.24H164.261V49.2331Z" fill="#4C5672"/>
<path d="M210.899 49.2331V59.0035H180.2V7.96875H190.847V49.24H210.899V49.2331Z" fill="#4C5672"/>
<path d="M273.469 59.0035H265.811L253.851 25.6788L241.967 59.0035H234.309L217.537 7.95996H228.765L238.68 39.7517L249.687 7.95996H258.071L269.078 39.7517L278.994 7.95996H290.222L273.449 59.0035H273.469Z" fill="#00B2D6"/>
<path d="M380.615 38.7376V59.0104H369.969V38.7376L350.573 7.96875H362.602L375.287 28.746L387.971 7.96875H400L380.602 38.7376H380.615Z" fill="#00B2D6"/>
<path d="M322.087 0H319.504L293.307 59.0033H304.611L320.796 20.9429L336.989 59.0033H348.36L322.087 0Z" fill="#00B2D6"/>
</g>
<defs>
<clipPath id="clip0_1071_2">
<rect width="400" height="60" fill="white"/>
</clipPath>
</defs>
</svg>
